<?xml version="1.0" encoding="UTF-8" standalone="no"?>
<!-- Created with Inkscape (http://www.inkscape.org/) -->

<svg
   xmlns:dc="http://purl.org/dc/elements/1.1/"
   xmlns:cc="http://creativecommons.org/ns#"
   xmlns:rdf="http://www.w3.org/1999/02/22-rdf-syntax-ns#"
   xmlns:svg="http://www.w3.org/2000/svg"
   xmlns="http://www.w3.org/2000/svg"
   xmlns:sodipodi="http://sodipodi.sourceforge.net/DTD/sodipodi-0.dtd"
   xmlns:inkscape="http://www.inkscape.org/namespaces/inkscape"
   id="svg2"
   version="1.1"
   inkscape:version="0.91 r13725"
   xml:space="preserve"
   width="208.26625"
   height="196.57249"
   viewBox="0 0 208.26625 196.57249"
   sodipodi:docname="Burger King 1969.svg"><metadata
     id="metadata8"><rdf:RDF><cc:Work
         rdf:about=""><dc:format>image/svg+xml</dc:format><dc:type
           rdf:resource="http://purl.org/dc/dcmitype/StillImage" /><dc:title></dc:title></cc:Work></rdf:RDF></metadata><defs
     id="defs6" /><sodipodi:namedview
     pagecolor="#ffffff"
     bordercolor="#666666"
     borderopacity="1"
     objecttolerance="10"
     gridtolerance="10"
     guidetolerance="10"
     inkscape:pageopacity="0"
     inkscape:pageshadow="2"
     inkscape:window-width="1366"
     inkscape:window-height="705"
     id="namedview4"
     showgrid="false"
     inkscape:zoom="1.5838922"
     inkscape:cx="15.772427"
     inkscape:cy="147.5349"
     inkscape:window-x="-8"
     inkscape:window-y="-8"
     inkscape:window-maximized="1"
     inkscape:current-layer="g10" /><g
     id="g10"
     inkscape:groupmode="layer"
     inkscape:label="ברגר קינג"
     transform="matrix(1.25,0,0,-1.25,-230.54125,805.69375)"><g
       transform="matrix(1.010732,0,0,-1.0125648,-32.956035,992.18404)"
       id="g3557"><g
         id="g3"><g
           id="g5"><path
             style="fill:#f39713"
             inkscape:connector-curvature="0"
             id="path9"
             d="m 216.267,464.555 c 53.831,0 107.14,0 160.924,0 0.005,8.01 -4.05,13.006 -9.482,17.067 -7.351,5.497 -16.056,8.064 -24.807,9.927 -18.177,3.868 -36.683,3.431 -55.142,3.172 -12.288,-0.172 -24.819,-0.314 -36.578,-3.277 -10.962,-2.763 -23.033,-5.133 -30.443,-15.698 -2.249,-3.208 -3.737,-6.574 -4.472,-11.191 z" /><path
             sodipodi:nodetypes="cccsccccccccccc"
             style="fill:#f39713"
             inkscape:connector-curvature="0"
             id="path11"
             d="m 216.211,375.168 c 0.83,-6.733 3.961,-12.115 9.605,-15.883 13.418,-8.96 28.75,-11.851 44.401,-13.139 20.916,-1.721 41.866,-1.783 62.722,0.948 11.081,1.451 21.904,4.025 31.709,9.729 5.47,3.182 9.557,7.421 11.651,13.68 1.477,4.415 -0.003,5.183 -3.993,5.156 -16.976,-0.112 -33.954,-0.055 -50.931,-0.021 -32.952,0.065 -65.904,0.166 -98.855,0.212 -1.954,0.003 -3.978,0.373 -6.309,-0.682 z m 8.985,-2.092 c 0.017,0.16 0.034,0.32 0.051,0.481 l -0.572,-0.47352 c 0,0 -0.003,-0.16316 -0.005,-0.32316 z" /><path
             style="fill:#e52821"
             inkscape:connector-curvature="0"
             id="path13"
             d="m 355.908,447.152 c -3.748,-1.322 -6.667,-3.341 -5.729,-7.373 0.984,-4.231 4.607,-5.61 8.697,-5.887 7.326,-0.495 10.657,0.923 12.6,5.499 2.416,5.69 1.024,12.488 -3.381,16.52 -7.751,7.093 -25.397,6.393 -32.629,-1.296 -8.357,-8.883 -8.248,-23.725 0.235,-32.088 7.466,-7.361 23.694,-8.631 32.128,-2.575 3.038,2.181 3.022,4.955 1.681,7.933 -1.312,2.915 -3.663,3.625 -6.621,2.627 -2.513,-0.848 -4.979,-1.956 -7.561,-2.454 -5.254,-1.014 -9.541,1.3 -11.428,5.785 -1.833,4.356 -0.237,10.96 3.172,13.737 3.013,2.456 5.84,0.364 8.836,-0.428 z" /><path
             style="fill:#e52821"
             inkscape:connector-curvature="0"
             id="path15"
             d="m 300.957,441.929 c -0.958,3.828 0.109,7.74 0.217,11.598 0.105,3.782 -1.014,6.092 -4.969,6.632 -5.082,0.694 -7.675,-0.693 -8.599,-5.195 -1.557,-7.583 -0.641,-15.244 -0.304,-22.875 0.095,-2.156 0.382,-4.305 0.621,-6.453 0.355,-3.189 0.616,-6.685 4.558,-7.403 4.01,-0.731 8.005,-0.658 10.629,3.462 2.656,4.171 5.451,8.253 8.519,12.877 1.6,-3.743 0.06,-6.767 -0.025,-9.776 -0.125,-4.422 1.625,-6.466 6.552,-6.716 3.704,-0.188 6.276,0.969 6.866,5.369 1.311,9.788 1.295,19.568 0.523,29.363 -0.219,2.777 -0.492,5.956 -3.997,6.752 -3.715,0.844 -7.198,0.508 -9.986,-2.718 -3.416,-3.953 -5.435,-8.733 -8.186,-13.074 -0.493,-0.774 -0.742,-1.928 -2.419,-1.843 z" /><path
             style="fill:#e52821"
             inkscape:connector-curvature="0"
             id="path17"
             d="m 224.842,438.886 c 0.015,-5.813 -0.183,-10.797 0.884,-15.737 0.806,-3.733 3.08,-5.248 6.732,-5.245 3.822,0.003 5.866,2.094 6.469,5.612 0.362,2.113 0.155,4.316 0.38,6.461 0.165,1.569 -0.005,3.499 2.22,3.916 2.009,0.376 3.182,-1.009 3.966,-2.437 1.595,-2.905 2.848,-5.995 4.38,-8.937 2.45,-4.704 9.143,-6.8 13.72,-4.392 3.052,1.605 3.444,4.753 0.846,8.034 -2.164,2.732 -4.664,5.21 -6.703,8.027 -3.509,4.847 -3.249,7.593 0.977,11.817 1.749,1.749 3.868,3.121 5.721,4.774 1.752,1.564 2.428,3.549 1.67,5.868 -0.682,2.085 -2.114,3.136 -4.299,3.633 -9.177,2.087 -12.955,-0.345 -14.567,-9.592 -0.086,-0.491 -0.116,-0.995 -0.232,-1.478 -0.587,-2.427 -1.559,-4.607 -4.592,-4.159 -3.133,0.462 -3.086,3.049 -3.083,5.405 0.001,1.153 0.302,2.302 0.424,3.458 0.428,4.085 -0.964,6.835 -5.405,7.369 -4.652,0.559 -7.493,-1.313 -8.224,-5.835 -0.932,-5.749 -1.575,-11.541 -1.284,-16.562 z" /><path
             style="fill:#e52821"
             inkscape:connector-curvature="0"
             id="path19"
             d="m 243.236,398.095 c 4.167,3.704 4.725,8.201 2.686,12.796 -2.165,4.879 -6.838,5.212 -11.464,5.185 -1.66,-0.01 -3.323,0.055 -4.979,-0.03 -3.185,-0.164 -5.235,-1.546 -5.738,-4.993 -1.158,-7.937 -1.145,-15.884 -0.356,-23.828 0.305,-3.071 2.002,-4.903 5.368,-5.568 3.884,-0.767 7.645,-0.518 11.327,0.377 6.758,1.644 8.134,8.212 3.156,16.061 z m -5.449,-6.404 c -0.481,-1.334 -1.064,-2.967 -3.197,-2.704 -1.913,0.236 -2.147,1.856 -2.101,3.381 0.051,1.686 0.26,3.596 2.612,3.31 1.95,-0.237 2.49,-1.905 2.686,-3.987 z m -2.757,16.161 c 1.777,-0.124 2.604,-1.305 2.67,-2.902 0.071,-1.709 -1.055,-2.769 -2.673,-2.939 -1.858,-0.195 -2.036,1.308 -2.051,2.644 -0.015,1.441 -0.182,3.1 2.054,3.197 z" /><path
             sodipodi:nodetypes="cccccccccccccccccc"
             style="fill:#e52821"
             inkscape:connector-curvature="0"
             id="path21"
             d="m 272.835,400.104 c 0,3.487 0.147,6.982 -0.035,10.46 -0.267,5.1 -2.713,6.904 -7.47,5.081 -2.089,-0.8 -3.7,-0.58 -5.658,-0.13 -5.777,1.327 -9.488,-0.998 -10.365,-6.921 -1.124,-7.587 -0.681,-15.255 -0.274,-22.891 0.149,-2.787 1.573,-4.083 4.505,-4.096 2.811,-0.012 4.363,0.978 4.791,3.828 0.498,3.31 0.604,6.592 0.271,9.931 -0.246,2.466 -0.257,4.978 -0.103,7.453 0.093,1.492 0.658,3.097 2.684,2.886 1.72,-0.179 1.998,-1.699 2.006,-3 0.023,-3.817 -0.206,-7.635 -0.184,-11.451 0.011,-1.975 0.275,-3.958 0.545,-5.921 0.393,-2.859 2.293,-3.798 4.961,-3.732 2.681,0.066 3.938,1.643 4.128,4.069 0.376,4.798 -0.0394,10.24036 0.24364,15.04536 -0.228,0.009 0.17936,-0.61736 -0.0456,-0.61136 z" /><path
             style="fill:#e52821"
             inkscape:connector-curvature="0"
             id="path23"
             d="m 316.076,405.743 c -0.039,-0.315 0.034,-0.783 -0.146,-0.921 -2.025,-1.555 -3.381,-3.475 -2.013,-5.968 1.323,-2.411 3.925,-2.171 6.243,-2.12 2.564,0.056 4.329,1.094 5.107,3.834 1.592,5.608 0.117,11.443 -3.79,13.94 -3.953,2.527 -12.533,1.98 -16.165,-1.046 -0.377,-0.314 -0.737,-0.678 -1.011,-1.082 -4.31,-6.357 -4.318,-19.939 -0.032,-26.381 3.679,-5.529 13.095,-7.027 18.211,-2.846 1.429,1.168 2.46,2.614 2.936,4.507 0.673,2.673 0.501,5.063 -2.186,6.346 -2.673,1.276 -5.221,1.076 -6.737,-1.999 -0.536,-1.086 -1.084,-2.173 -2.539,-1.896 -1.299,0.247 -1.764,1.277 -2.145,2.468 -1.259,3.941 -1.35,7.883 -0.007,11.778 0.85,2.461 0.978,2.417 4.274,1.386 z" /><path
             style="fill:#e52821"
             inkscape:connector-curvature="0"
             id="path25"
             d="m 287.111,405.698 c -2.459,1.751 -1.585,3.924 -1.601,5.757 -0.02,2.298 -0.595,4.061 -3.068,4.329 -2.39,0.259 -4.966,0.085 -5.558,-2.899 -1.87,-9.421 -1.268,-18.856 0.279,-28.258 0.096,-0.581 0.638,-1.166 1.113,-1.595 2.407,-2.179 12.03,-1.717 16.324,0.682 4.539,2.535 5.054,6.641 4.476,11.192 -0.395,3.111 -3.45,4.359 -4.9,6.867 0.21,2.587 2.271,3.863 4.017,5.312 2.042,1.695 2.643,3.777 1.893,6.24 -0.838,2.755 -3.268,2.485 -5.373,2.531 -2.665,0.059 -4.932,-0.696 -5.791,-3.667 -0.587,-2.03 -0.317,-4.295 -1.811,-6.491 z m -1.56,-11.59 c -0.111,1.583 0.161,3.299 1.945,3.388 2.038,0.102 2.567,-1.634 2.507,-3.43 -0.056,-1.649 -0.071,-3.713 -2.224,-3.679 -2.072,0.033 -2.19,2.036 -2.228,3.721 z" /><path
             style="fill:#e52821"
             inkscape:connector-curvature="0"
             id="path27"
             d="m 357.91,403.512 c -1.104,2.319 -0.756,4.309 -0.705,6.205 0.074,2.736 -0.765,4.517 -3.814,4.687 -2.79,0.156 -4.843,-0.364 -5.305,-3.721 -1.166,-8.489 -1.025,-16.931 0.574,-25.334 0.202,-1.061 0.877,-2.219 1.682,-2.946 3.253,-2.936 14.238,-1.782 17.779,1.788 3.334,3.362 4.196,10.203 -0.795,14.189 -3.456,2.76 -0.65,5.117 1.32,6.973 1.997,1.881 4.419,3.401 2.826,6.589 -1.439,2.879 -4.233,2.974 -6.937,2.642 -3.446,-0.424 -4.644,-2.749 -4.665,-6 -0.009,-1.608 0.15,-3.357 -1.96,-5.072 z m 1.43,-14.322 c -1.816,0.065 -2.265,1.278 -2.143,2.681 0.143,1.653 -0.931,4.019 1.43,4.653 1.946,0.522 2.92,-1.226 3.106,-2.954 0.207,-1.919 -0.617,-3.484 -2.393,-4.38 z" /><path
             style="fill:#e52821"
             inkscape:connector-curvature="0"
             id="path29"
             d="m 281.976,441.202 c 0,4.313 0.136,8.631 -0.041,12.936 -0.154,3.737 -1.648,6.199 -6.082,6.165 -4.303,-0.033 -5.849,-2.131 -6.16,-6.066 -0.772,-9.767 -1.063,-19.528 -0.437,-29.315 0.251,-3.923 1.427,-6.795 6.035,-6.821 4.576,-0.026 5.882,2.7 6.051,6.702 0.231,5.467 0.647,10.926 0.984,16.389 -0.117,0.003 -0.234,0.007 -0.35,0.01 z" /><path
             style="fill:#e52821"
             inkscape:connector-curvature="0"
             id="path31"
             d="m 337.256,405.836 c 1.393,0.101 2.529,0.265 3.663,0.249 2.308,-0.032 3.929,0.744 4.138,3.279 0.215,2.617 -0.587,4.547 -3.464,5.165 -2.975,0.638 -5.946,0.635 -8.931,0.215 -2.507,-0.353 -3.791,-1.966 -4.108,-4.346 -1.058,-7.964 -1.231,-15.939 -0.021,-23.904 0.495,-3.262 2.738,-4.936 5.746,-5.387 3.609,-0.541 7.465,-1.084 10.471,1.61 2.21,1.982 0.905,5.834 -2.049,6.694 -0.941,0.274 -1.97,0.257 -2.962,0.338 -1.443,0.118 -2.711,0.519 -2.726,2.248 -0.017,1.964 1.515,1.875 2.847,1.888 2.344,0.022 4.439,0.438 4.704,3.295 0.256,2.754 -0.201,5.053 -3.82,4.905 -2.16,-0.09 -4.19,0.124 -3.488,3.751 z" /></g></g><path
         d="m 372.4428,489.09896 1.05021,0 c 0.57077,0 1.29144,0.10547 1.29144,0.79011 0,0.77593 -0.52619,0.88095 -1.22938,0.88095 l -1.1127,0 0,-1.67106 m -1.24468,5.38318 1.24511,0 0,-2.72172 0.78055,0 1.53007,2.72172 1.30586,0 -1.68083,-2.78199 c 0.93001,-0.0789 1.64937,-0.53353 1.64937,-1.70384 0,-1.38524 -0.88543,-1.88908 -2.45877,-1.88908 l -2.3718,0 0,6.37491 4.4e-4,0 z m -3.5247,-3.17947 c 0,3.46707 2.71443,5.70444 5.75927,5.70444 3.04658,0 5.76189,-2.23737 5.76189,-5.70444 0,-3.4529 -2.71531,-5.67477 -5.76189,-5.67477 -3.04527,4.5e-4 -5.75927,2.22187 -5.75927,5.67477 z m 1.52963,0 c 0,-2.58657 1.8727,-4.45747 4.2292,-4.45747 2.32766,0 4.23139,1.8709 4.23139,4.45747 0,2.60251 -1.90329,4.4876 -4.23139,4.4876 -2.35606,0 -4.2292,-1.88509 -4.2292,-4.4876 z"
         id="path43-5"
         style="fill:#f39941;fill-opacity:1"
         inkscape:connector-curvature="0" /></g></g></svg>